<?xml version="1.0" encoding="UTF-8" standalone="no"?>
<!DOCTYPE svg PUBLIC "-//W3C//DTD SVG 1.1//EN" "http://www.w3.org/Graphics/SVG/1.1/DTD/svg11.dtd">
<!-- Created with Vectornator (http://vectornator.io/) -->
<svg height="100%" stroke-miterlimit="10" style="fill-rule:nonzero;clip-rule:evenodd;stroke-linecap:round;stroke-linejoin:round;" version="1.1" viewBox="0 0 792 612" width="100%" xml:space="preserve" xmlns="http://www.w3.org/2000/svg" xmlns:vectornator="http://vectornator.io" xmlns:xlink="http://www.w3.org/1999/xlink">
<defs/>
<g id="Layer-1" vectornator:layerName="Layer 1">
<path d="M28.35 42.525L737.1 42.525L737.1 396.9L413.756 396.9L284.311 396.9L275.877 396.9L28.35 396.9L28.35 42.525Z" fill="none" opacity="1" stroke="#000000" stroke-linecap="butt" stroke-linejoin="round" stroke-width="1"/>
<path d="M106.312 77.9625L239.585 77.9625L276.412 77.9625L276.412 361.462L106.312 361.462L106.312 77.9625Z" fill="none" opacity="1" stroke="#adadad" stroke-linecap="butt" stroke-linejoin="round" stroke-width="1"/>
<path d="M573.521 149.688L652.05 149.688L652.05 226.8L573.521 226.8L573.521 149.688Z" fill="none" opacity="1" stroke="#000000" stroke-linecap="butt" stroke-linejoin="round" stroke-width="1"/>
<path d="M574.822 160.809L650.516 160.809L650.516 215.524L574.822 215.524L574.822 160.809Z" fill="none" opacity="1" stroke="#000000" stroke-linecap="butt" stroke-linejoin="round" stroke-width="1"/>
<path d="M574.741 155.088C574.741 153.131 576.327 151.544 578.284 151.544C580.241 151.544 581.828 153.131 581.828 155.088C581.828 157.045 580.241 158.632 578.284 158.632C576.327 158.632 574.741 157.045 574.741 155.088Z" fill="none" opacity="1" stroke="#000000" stroke-linecap="butt" stroke-linejoin="round" stroke-width="1"/>
<path d="M642.758 154.615C642.758 152.658 644.345 151.071 646.302 151.071C648.259 151.071 649.846 152.658 649.846 154.615C649.846 156.572 648.259 158.159 646.302 158.159C644.345 158.159 642.758 156.572 642.758 154.615Z" fill="none" opacity="1" stroke="#000000" stroke-linecap="butt" stroke-linejoin="round" stroke-width="1"/>
<path d="M575.007 220.287C575.007 218.33 576.593 216.743 578.551 216.743C580.508 216.743 582.094 218.33 582.094 220.287C582.094 222.244 580.508 223.831 578.551 223.831C576.593 223.831 575.007 222.244 575.007 220.287Z" fill="none" opacity="1" stroke="#000000" stroke-linecap="butt" stroke-linejoin="round" stroke-width="1"/>
<path d="M642.722 220.47C642.722 218.513 644.309 216.927 646.266 216.927C648.223 216.927 649.81 218.513 649.81 220.47C649.81 222.427 648.223 224.014 646.266 224.014C644.309 224.014 642.722 222.427 642.722 220.47Z" fill="none" opacity="1" stroke="#000000" stroke-linecap="butt" stroke-linejoin="round" stroke-width="1"/>
<path d="M604.422 283.5L637.875 283.5L637.875 316.953L604.422 316.953L604.422 283.5Z" fill="none" opacity="1" stroke="#000000" stroke-linecap="butt" stroke-linejoin="round" stroke-width="1"/>
<path d="M340.2 283.5L373.653 283.5L373.653 316.953L340.2 316.953L340.2 283.5Z" fill="none" opacity="1" stroke="#000000" stroke-linecap="butt" stroke-linejoin="round" stroke-width="1"/>
<path d="M538.933 304.621C538.933 292.956 548.39 283.5 560.054 283.5C571.719 283.5 581.175 292.956 581.175 304.621C581.175 316.285 571.719 325.742 560.054 325.742C548.39 325.742 538.933 316.285 538.933 304.621Z" fill="none" opacity="1" stroke="#000000" stroke-linecap="butt" stroke-linejoin="round" stroke-width="1"/>
<path d="M467.775 304.904C467.775 293.24 477.231 283.784 488.896 283.784C500.56 283.784 510.017 293.24 510.017 304.904C510.017 316.569 500.56 326.025 488.896 326.025C477.231 326.025 467.775 316.569 467.775 304.904Z" fill="none" opacity="1" stroke="#000000" stroke-linecap="butt" stroke-linejoin="round" stroke-width="1"/>
<path d="M397.183 304.904C397.183 293.24 406.64 283.784 418.304 283.784C429.969 283.784 439.425 293.24 439.425 304.904C439.425 316.569 429.969 326.025 418.304 326.025C406.64 326.025 397.183 316.569 397.183 304.904Z" fill="none" opacity="1" stroke="#000000" stroke-linecap="butt" stroke-linejoin="round" stroke-width="1"/>
<path d="M666.508 134.804C666.508 123.14 675.965 113.683 687.629 113.683C699.294 113.683 708.75 123.14 708.75 134.804C708.75 146.469 699.294 155.925 687.629 155.925C675.965 155.925 666.508 146.469 666.508 134.804Z" fill="none" opacity="1" stroke="#000000" stroke-linecap="butt" stroke-linejoin="round" stroke-width="1"/>
<path d="M666.225 219.854C666.225 208.19 675.681 198.733 687.346 198.733C699.01 198.733 708.467 208.19 708.467 219.854C708.467 231.519 699.01 240.975 687.346 240.975C675.681 240.975 666.225 231.519 666.225 219.854Z" fill="none" opacity="1" stroke="#000000" stroke-linecap="butt" stroke-linejoin="round" stroke-width="1"/>
<path d="M340.2 133.741C340.2 122.507 349.307 113.4 360.541 113.4C371.775 113.4 380.882 122.507 380.882 133.741C380.882 144.975 371.775 154.082 360.541 154.082C349.307 154.082 340.2 144.975 340.2 133.741Z" fill="none" opacity="1" stroke="#000000" stroke-linecap="butt" stroke-linejoin="round" stroke-width="1"/>
<path d="M396.9 133.741C396.9 122.507 406.007 113.4 417.241 113.4C428.475 113.4 437.582 122.507 437.582 133.741C437.582 144.975 428.475 154.082 417.241 154.082C406.007 154.082 396.9 144.975 396.9 133.741Z" fill="none" opacity="1" stroke="#000000" stroke-linecap="butt" stroke-linejoin="round" stroke-width="1"/>
<path d="M453.6 133.741C453.6 122.507 462.707 113.4 473.941 113.4C485.175 113.4 494.282 122.507 494.282 133.741C494.282 144.975 485.175 154.082 473.941 154.082C462.707 154.082 453.6 144.975 453.6 133.741Z" fill="none" opacity="1" stroke="#000000" stroke-linecap="butt" stroke-linejoin="round" stroke-width="1"/>
<path d="M510.3 133.741C510.3 122.507 519.407 113.4 530.641 113.4C541.875 113.4 550.982 122.507 550.982 133.741C550.982 144.975 541.875 154.082 530.641 154.082C519.407 154.082 510.3 144.975 510.3 133.741Z" fill="none" opacity="1" stroke="#000000" stroke-linecap="butt" stroke-linejoin="round" stroke-width="1"/>
<path d="M340.2 218.791C340.2 207.557 349.307 198.45 360.541 198.45C371.775 198.45 380.882 207.557 380.882 218.791C380.882 230.025 371.775 239.132 360.541 239.132C349.307 239.132 340.2 230.025 340.2 218.791Z" fill="none" opacity="1" stroke="#000000" stroke-linecap="butt" stroke-linejoin="round" stroke-width="1"/>
<path d="M396.9 218.791C396.9 207.557 406.007 198.45 417.241 198.45C428.475 198.45 437.582 207.557 437.582 218.791C437.582 230.025 428.475 239.132 417.241 239.132C406.007 239.132 396.9 230.025 396.9 218.791Z" fill="none" opacity="1" stroke="#000000" stroke-linecap="butt" stroke-linejoin="round" stroke-width="1"/>
<path d="M453.6 218.791C453.6 207.557 462.707 198.45 473.941 198.45C485.175 198.45 494.282 207.557 494.282 218.791C494.282 230.025 485.175 239.132 473.941 239.132C462.707 239.132 453.6 230.025 453.6 218.791Z" fill="none" opacity="1" stroke="#000000" stroke-linecap="butt" stroke-linejoin="round" stroke-width="1"/>
<path d="M510.3 218.791C510.3 207.557 519.407 198.45 530.641 198.45C541.875 198.45 550.982 207.557 550.982 218.791C550.982 230.025 541.875 239.132 530.641 239.132C519.407 239.132 510.3 230.025 510.3 218.791Z" fill="none" opacity="1" stroke="#000000" stroke-linecap="butt" stroke-linejoin="round" stroke-width="1"/>
<path d="M56.7 174.353L167.408 174.353L323.133 174.353L323.133 354.375L56.7 354.375L56.7 174.353Z" fill="none" opacity="1" stroke="#000000" stroke-linecap="butt" stroke-linejoin="round" stroke-width="1"/>
<path d="M67.5014 185.225L169.233 185.225L312.332 185.225L312.332 343.503L67.5014 343.503L67.5014 185.225Z" fill="none" opacity="1" stroke="#000000" stroke-linecap="butt" stroke-linejoin="round" stroke-width="1"/>
<path d="M340.2 133.741L380.882 133.741" fill="none" opacity="1" stroke="#000000" stroke-linecap="butt" stroke-linejoin="round" stroke-width="1"/>
<path d="M340.2 218.805L380.882 218.805" fill="none" opacity="1" stroke="#000000" stroke-linecap="butt" stroke-linejoin="round" stroke-width="1"/>
<path d="M396.9 218.805L437.582 218.805" fill="none" opacity="1" stroke="#000000" stroke-linecap="butt" stroke-linejoin="round" stroke-width="1"/>
<path d="M453.6 218.805L494.282 218.805" fill="none" opacity="1" stroke="#000000" stroke-linecap="butt" stroke-linejoin="round" stroke-width="1"/>
<path d="M510.3 218.805L550.982 218.805" fill="none" opacity="1" stroke="#000000" stroke-linecap="butt" stroke-linejoin="round" stroke-width="1"/>
<path d="M396.9 133.741L437.582 133.741" fill="none" opacity="1" stroke="#000000" stroke-linecap="butt" stroke-linejoin="round" stroke-width="1"/>
<path d="M453.6 133.741L494.282 133.741" fill="none" opacity="1" stroke="#000000" stroke-linecap="butt" stroke-linejoin="round" stroke-width="1"/>
<path d="M510.3 133.741L550.982 133.741" fill="none" opacity="1" stroke="#000000" stroke-linecap="butt" stroke-linejoin="round" stroke-width="1"/>
<path d="M360.541 113.4L360.541 154.082" fill="none" opacity="1" stroke="#000000" stroke-linecap="butt" stroke-linejoin="round" stroke-width="1"/>
<path d="M417.227 113.4L417.227 154.082" fill="none" opacity="1" stroke="#000000" stroke-linecap="butt" stroke-linejoin="round" stroke-width="1"/>
<path d="M417.227 198.45L417.227 239.132" fill="none" opacity="1" stroke="#000000" stroke-linecap="butt" stroke-linejoin="round" stroke-width="1"/>
<path d="M473.927 113.4L473.927 154.082" fill="none" opacity="1" stroke="#000000" stroke-linecap="butt" stroke-linejoin="round" stroke-width="1"/>
<path d="M473.927 198.45L473.927 239.132" fill="none" opacity="1" stroke="#000000" stroke-linecap="butt" stroke-linejoin="round" stroke-width="1"/>
<path d="M530.627 113.4L530.627 154.082" fill="none" opacity="1" stroke="#000000" stroke-linecap="butt" stroke-linejoin="round" stroke-width="1"/>
<path d="M530.627 198.45L530.627 239.132" fill="none" opacity="1" stroke="#000000" stroke-linecap="butt" stroke-linejoin="round" stroke-width="1"/>
<path d="M360.541 198.45L360.541 239.132" fill="none" opacity="1" stroke="#000000" stroke-linecap="butt" stroke-linejoin="round" stroke-width="1"/>
<path d="M397.183 304.621L439.425 304.621" fill="none" opacity="1" stroke="#000000" stroke-linecap="butt" stroke-linejoin="round" stroke-width="1"/>
<path d="M666.225 219.571L708.466 219.571" fill="none" opacity="1" stroke="#000000" stroke-linecap="butt" stroke-linejoin="round" stroke-width="1"/>
<path d="M666.225 134.521L708.466 134.521" fill="none" opacity="1" stroke="#000000" stroke-linecap="butt" stroke-linejoin="round" stroke-width="1"/>
<path d="M467.775 304.621L510.016 304.621" fill="none" opacity="1" stroke="#000000" stroke-linecap="butt" stroke-linejoin="round" stroke-width="1"/>
<path d="M538.65 304.621L580.891 304.621" fill="none" opacity="1" stroke="#000000" stroke-linecap="butt" stroke-linejoin="round" stroke-width="1"/>
<path d="M418.304 283.5L418.304 325.741" fill="none" opacity="1" stroke="#000000" stroke-linecap="butt" stroke-linejoin="round" stroke-width="1"/>
<path d="M488.896 283.5L488.896 325.741" fill="none" opacity="1" stroke="#000000" stroke-linecap="butt" stroke-linejoin="round" stroke-width="1"/>
<path d="M559.771 283.5L559.771 325.741" fill="none" opacity="1" stroke="#000000" stroke-linecap="butt" stroke-linejoin="round" stroke-width="1"/>
<path d="M687.346 198.45L687.346 240.691" fill="none" opacity="1" stroke="#000000" stroke-linecap="butt" stroke-linejoin="round" stroke-width="1"/>
<path d="M687.346 113.4L687.346 155.641" fill="none" opacity="1" stroke="#000000" stroke-linecap="butt" stroke-linejoin="round" stroke-width="1"/>
<path d="M63.9576 185.267C63.9576 183.31 65.5442 181.723 67.5014 181.723C69.4585 181.723 71.0451 183.31 71.0451 185.267C71.0451 187.224 69.4585 188.811 67.5014 188.811C65.5442 188.811 63.9576 187.224 63.9576 185.267Z" fill="none" opacity="1" stroke="#000000" stroke-linecap="butt" stroke-linejoin="round" stroke-width="1"/>
<path d="M63.9576 343.545C63.9576 341.588 65.5442 340.002 67.5014 340.002C69.4585 340.002 71.0451 341.588 71.0451 343.545C71.0451 345.502 69.4585 347.089 67.5014 347.089C65.5442 347.089 63.9576 345.502 63.9576 343.545Z" fill="none" opacity="1" stroke="#000000" stroke-linecap="butt" stroke-linejoin="round" stroke-width="1"/>
<path d="M46.0688 63.7875C46.0688 61.8303 47.6553 60.2437 49.6125 60.2437C51.5697 60.2437 53.1562 61.8303 53.1562 63.7875C53.1562 65.7447 51.5697 67.3312 49.6125 67.3312C47.6553 67.3312 46.0688 65.7447 46.0688 63.7875Z" fill="none" opacity="1" stroke="#000000" stroke-linecap="butt" stroke-linejoin="round" stroke-width="1"/>
<path d="M712.294 63.7875C712.294 61.8303 713.88 60.2437 715.838 60.2437C717.795 60.2437 719.381 61.8303 719.381 63.7875C719.381 65.7447 717.795 67.3312 715.838 67.3312C713.88 67.3312 712.294 65.7447 712.294 63.7875Z" fill="none" opacity="1" stroke="#000000" stroke-linecap="butt" stroke-linejoin="round" stroke-width="1"/>
<path d="M379.181 63.7875C379.181 61.8303 380.768 60.2437 382.725 60.2437C384.682 60.2437 386.269 61.8303 386.269 63.7875C386.269 65.7447 384.682 67.3312 382.725 67.3312C380.768 67.3312 379.181 65.7447 379.181 63.7875Z" fill="none" opacity="1" stroke="#000000" stroke-linecap="butt" stroke-linejoin="round" stroke-width="1"/>
<path d="M379.181 375.637C379.181 373.68 380.768 372.094 382.725 372.094C384.682 372.094 386.269 373.68 386.269 375.637C386.269 377.595 384.682 379.181 382.725 379.181C380.768 379.181 379.181 377.595 379.181 375.637Z" fill="none" opacity="1" stroke="#000000" stroke-linecap="butt" stroke-linejoin="round" stroke-width="1"/>
<path d="M712.294 375.637C712.294 373.68 713.88 372.094 715.838 372.094C717.795 372.094 719.381 373.68 719.381 375.637C719.381 377.595 717.795 379.181 715.838 379.181C713.88 379.181 712.294 377.595 712.294 375.637Z" fill="none" opacity="1" stroke="#000000" stroke-linecap="butt" stroke-linejoin="round" stroke-width="1"/>
<path d="M308.788 185.267C308.788 183.31 310.375 181.723 312.332 181.723C314.289 181.723 315.876 183.31 315.876 185.267C315.876 187.224 314.289 188.811 312.332 188.811C310.375 188.811 308.788 187.224 308.788 185.267Z" fill="none" opacity="1" stroke="#000000" stroke-linecap="butt" stroke-linejoin="round" stroke-width="1"/>
<path d="M308.788 343.545C308.788 341.588 310.375 340.002 312.332 340.002C314.289 340.002 315.876 341.588 315.876 343.545C315.876 345.502 314.289 347.089 312.332 347.089C310.375 347.089 308.788 345.502 308.788 343.545Z" fill="none" opacity="1" stroke="#000000" stroke-linecap="butt" stroke-linejoin="round" stroke-width="1"/>
<path d="M46.0688 375.637C46.0688 373.68 47.6553 372.094 49.6125 372.094C51.5697 372.094 53.1562 373.68 53.1562 375.637C53.1562 377.595 51.5697 379.181 49.6125 379.181C47.6553 379.181 46.0688 377.595 46.0688 375.637Z" fill="none" opacity="1" stroke="#000000" stroke-linecap="butt" stroke-linejoin="round" stroke-width="1"/>
<g fill="#3395ff" opacity="1" stroke="none">
<path d="M470.642 68.2382L475.806 68.2382C476.827 68.2382 477.65 68.526 478.275 69.1015C478.9 69.677 479.212 70.4856 479.212 71.5273C479.212 72.4231 478.934 73.2031 478.377 73.8671C477.819 74.5312 476.963 74.8632 475.806 74.8632L472.197 74.8632L472.197 79.7148L470.642 79.7148L470.642 68.2382ZM477.642 71.5351C477.642 70.6913 477.33 70.1184 476.705 69.8163C476.361 69.6549 475.89 69.5741 475.291 69.5741L472.197 69.5741L472.197 73.5507L475.291 73.5507C475.989 73.5507 476.555 73.4023 476.99 73.1054C477.425 72.8085 477.642 72.2851 477.642 71.5351Z"/>
<path d="M480.978 71.3866L482.408 71.3866L482.408 79.7148L480.978 79.7148L480.978 71.3866ZM480.978 68.2382L482.408 68.2382L482.408 69.832L480.978 69.832L480.978 68.2382Z"/>
<path d="M487.759 71.1054C488.702 71.1054 489.469 71.3346 490.06 71.7929C490.651 72.2512 491.007 73.0403 491.127 74.1601L489.759 74.1601C489.676 73.6445 489.486 73.2161 489.189 72.8749C488.892 72.5338 488.416 72.3632 487.759 72.3632C486.864 72.3632 486.223 72.8007 485.837 73.6757C485.587 74.2434 485.462 74.9439 485.462 75.7773C485.462 76.6158 485.64 77.3215 485.994 77.8945C486.348 78.4674 486.905 78.7538 487.666 78.7538C488.249 78.7538 488.711 78.5754 489.052 78.2187C489.393 77.8619 489.629 77.3736 489.759 76.7538L491.127 76.7538C490.97 77.8632 490.58 78.6744 489.955 79.1874C489.33 79.7004 488.53 79.957 487.556 79.957C486.462 79.957 485.59 79.5572 484.939 78.7577C484.288 77.9583 483.962 76.9596 483.962 75.7616C483.962 74.2929 484.319 73.1497 485.033 72.332C485.746 71.5143 486.655 71.1054 487.759 71.1054Z"/>
<path d="M495.853 78.8085C496.785 78.8085 497.425 78.4557 497.771 77.7499C498.117 77.0442 498.291 76.259 498.291 75.3945C498.291 74.6132 498.166 73.9778 497.916 73.4882C497.52 72.7174 496.838 72.332 495.869 72.332C495.009 72.332 494.384 72.6601 493.994 73.3163C493.603 73.9726 493.408 74.7643 493.408 75.6913C493.408 76.582 493.603 77.3241 493.994 77.9179C494.384 78.5116 495.004 78.8085 495.853 78.8085ZM495.908 71.1054C496.986 71.1054 497.897 71.4648 498.642 72.1835C499.387 72.9023 499.759 73.9596 499.759 75.3554C499.759 76.7044 499.431 77.8189 498.775 78.6991C498.119 79.5794 497.101 80.0195 495.72 80.0195C494.569 80.0195 493.655 79.6301 492.978 78.8515C492.301 78.0728 491.962 77.0273 491.962 75.7148C491.962 74.3085 492.319 73.1887 493.033 72.3554C493.746 71.5221 494.705 71.1054 495.908 71.1054Z"/>
<path d="M506.025 68.2382L508.252 68.2382L511.548 77.9413L514.822 68.2382L517.025 68.2382L517.025 79.7148L515.548 79.7148L515.548 72.9413C515.548 72.707 515.554 72.3189 515.564 71.7773C515.574 71.2356 515.58 70.6549 515.58 70.0351L512.306 79.7148L510.767 79.7148L507.47 70.0351L507.47 70.3866C507.47 70.6679 507.477 71.0963 507.49 71.6718C507.503 72.2473 507.509 72.6705 507.509 72.9413L507.509 79.7148L506.025 79.7148L506.025 68.2382Z"/>
<path d="M519.744 68.2382L521.314 68.2382L521.314 79.7148L519.744 79.7148L519.744 68.2382Z"/>
<path d="M528.244 78.3866C528.77 78.3866 529.202 78.332 529.541 78.2226C530.145 78.0195 530.64 77.6288 531.025 77.0507C531.332 76.5872 531.554 75.9934 531.689 75.2695C531.767 74.8372 531.806 74.4361 531.806 74.0663C531.806 72.6445 531.524 71.5403 530.959 70.7538C530.393 69.9674 529.483 69.5741 528.228 69.5741L525.47 69.5741L525.47 78.3866L528.244 78.3866ZM523.908 68.2382L528.556 68.2382C530.134 68.2382 531.358 68.7981 532.228 69.9179C533.004 70.9283 533.392 72.2226 533.392 73.8007C533.392 75.0195 533.163 76.121 532.705 77.1054C531.897 78.845 530.509 79.7148 528.541 79.7148L523.908 79.7148L523.908 68.2382Z"/>
<path d="M535.744 68.2382L537.314 68.2382L537.314 79.7148L535.744 79.7148L535.744 68.2382Z"/>
<path d="M545.298 76.0116C545.335 76.6627 545.489 77.1913 545.759 77.5976C546.275 78.358 547.184 78.7382 548.486 78.7382C549.069 78.7382 549.601 78.6549 550.08 78.4882C551.007 78.1653 551.47 77.5872 551.47 76.7538C551.47 76.1288 551.275 75.6835 550.884 75.4179C550.489 75.1575 549.869 74.9309 549.025 74.7382L547.47 74.3866C546.455 74.1575 545.736 73.9049 545.314 73.6288C544.585 73.1497 544.22 72.4335 544.22 71.4804C544.22 70.4491 544.577 69.6028 545.291 68.9413C546.004 68.2799 547.015 67.9491 548.322 67.9491C549.525 67.9491 550.547 68.2395 551.388 68.8202C552.229 69.401 552.65 70.3294 552.65 71.6054L551.189 71.6054C551.111 70.9908 550.944 70.5195 550.689 70.1913C550.215 69.5924 549.41 69.2929 548.275 69.2929C547.358 69.2929 546.699 69.4856 546.298 69.871C545.897 70.2564 545.697 70.7044 545.697 71.2148C545.697 71.7773 545.931 72.1887 546.4 72.4491C546.707 72.6158 547.403 72.8241 548.486 73.0741L550.095 73.4413C550.871 73.6184 551.47 73.8606 551.892 74.1679C552.621 74.7044 552.986 75.483 552.986 76.5038C552.986 77.7747 552.524 78.6835 551.599 79.2304C550.675 79.7773 549.601 80.0507 548.377 80.0507C546.949 80.0507 545.832 79.6861 545.025 78.957C544.218 78.233 543.822 77.2512 543.837 76.0116L545.298 76.0116Z"/>
<path d="M558.252 71.1601C558.845 71.1601 559.421 71.2994 559.978 71.5781C560.535 71.8567 560.96 72.2174 561.252 72.6601C561.533 73.082 561.72 73.5741 561.814 74.1366C561.897 74.5221 561.939 75.1366 561.939 75.9804L555.806 75.9804C555.832 76.8294 556.033 77.5103 556.408 78.0234C556.783 78.5364 557.364 78.7929 558.15 78.7929C558.884 78.7929 559.47 78.5507 559.908 78.0663C560.158 77.7851 560.335 77.4596 560.439 77.0898L561.822 77.0898C561.785 77.3971 561.664 77.7395 561.459 78.1171C561.253 78.4947 561.022 78.8033 560.767 79.0429C560.34 79.4596 559.811 79.7408 559.181 79.8866C558.843 79.97 558.46 80.0116 558.033 80.0116C556.991 80.0116 556.108 79.6327 555.384 78.8749C554.66 78.1171 554.298 77.0559 554.298 75.6913C554.298 74.3476 554.663 73.2564 555.392 72.4179C556.121 71.5794 557.074 71.1601 558.252 71.1601ZM560.494 74.8632C560.436 74.2538 560.304 73.7669 560.095 73.4023C559.71 72.7252 559.067 72.3866 558.166 72.3866C557.52 72.3866 556.978 72.6197 556.541 73.0859C556.103 73.552 555.871 74.1445 555.845 74.8632L560.494 74.8632Z"/>
<path d="M564.572 75.6445C564.572 76.3684 564.673 76.9752 564.877 77.4648C565.236 78.3346 565.879 78.7695 566.806 78.7695C567.785 78.7695 568.46 78.3111 568.83 77.3945C569.033 76.8893 569.134 76.2434 569.134 75.457C569.134 74.733 569.022 74.1288 568.798 73.6445C568.418 72.8163 567.749 72.4023 566.791 72.4023C566.181 72.4023 565.659 72.6666 565.224 73.1952C564.789 73.7239 564.572 74.5403 564.572 75.6445ZM566.65 71.1601C567.343 71.1601 567.926 71.3346 568.4 71.6835C568.66 71.871 568.91 72.1471 569.15 72.5116L569.15 71.3476L570.486 71.3476L570.486 83.0507L569.072 83.0507L569.072 78.7538C568.837 79.1288 568.513 79.427 568.099 79.6484C567.685 79.8697 567.168 79.9804 566.548 79.9804C565.658 79.9804 564.861 79.6314 564.158 78.9335C563.455 78.2356 563.103 77.1731 563.103 75.746C563.103 74.4075 563.433 73.3085 564.091 72.4491C564.75 71.5898 565.603 71.1601 566.65 71.1601Z"/>
<path d="M573.97 71.3476L573.97 76.9023C573.97 77.3294 574.038 77.6783 574.173 77.9491C574.423 78.4491 574.89 78.6991 575.572 78.6991C576.551 78.6991 577.218 78.2616 577.572 77.3866C577.765 76.9179 577.861 76.2747 577.861 75.457L577.861 71.3476L579.267 71.3476L579.267 79.7148L577.939 79.7148L577.955 78.4804C577.772 78.7981 577.546 79.0663 577.275 79.2851C576.739 79.7226 576.088 79.9413 575.322 79.9413C574.129 79.9413 573.317 79.5429 572.884 78.746C572.65 78.3189 572.533 77.7486 572.533 77.0351L572.533 71.3476L573.97 71.3476Z"/>
<path d="M584.947 71.1601C585.541 71.1601 586.116 71.2994 586.673 71.5781C587.231 71.8567 587.655 72.2174 587.947 72.6601C588.228 73.082 588.416 73.5741 588.509 74.1366C588.593 74.5221 588.634 75.1366 588.634 75.9804L582.502 75.9804C582.528 76.8294 582.728 77.5103 583.103 78.0234C583.478 78.5364 584.059 78.7929 584.845 78.7929C585.58 78.7929 586.166 78.5507 586.603 78.0663C586.853 77.7851 587.03 77.4596 587.134 77.0898L588.517 77.0898C588.481 77.3971 588.36 77.7395 588.154 78.1171C587.948 78.4947 587.718 78.8033 587.462 79.0429C587.035 79.4596 586.507 79.7408 585.877 79.8866C585.538 79.97 585.155 80.0116 584.728 80.0116C583.686 80.0116 582.804 79.6327 582.08 78.8749C581.356 78.1171 580.994 77.0559 580.994 75.6913C580.994 74.3476 581.358 73.2564 582.087 72.4179C582.817 71.5794 583.77 71.1601 584.947 71.1601ZM587.189 74.8632C587.132 74.2538 586.999 73.7669 586.791 73.4023C586.405 72.7252 585.762 72.3866 584.861 72.3866C584.215 72.3866 583.673 72.6197 583.236 73.0859C582.798 73.552 582.567 74.1445 582.541 74.8632L587.189 74.8632Z"/>
<path d="M590.361 71.3476L591.697 71.3476L591.697 72.5351C592.093 72.0455 592.512 71.6939 592.955 71.4804C593.397 71.2669 593.89 71.1601 594.431 71.1601C595.619 71.1601 596.421 71.5741 596.837 72.4023C597.067 72.8554 597.181 73.5038 597.181 74.3476L597.181 79.7148L595.752 79.7148L595.752 74.4413C595.752 73.9309 595.676 73.5195 595.525 73.207C595.275 72.6861 594.822 72.4257 594.166 72.4257C593.832 72.4257 593.559 72.4596 593.345 72.5273C592.96 72.6419 592.621 72.871 592.33 73.2148C592.095 73.4908 591.943 73.776 591.873 74.0702C591.802 74.3645 591.767 74.7851 591.767 75.332L591.767 79.7148L590.361 79.7148L590.361 71.3476Z"/>
<path d="M602.486 71.1054C603.429 71.1054 604.196 71.3346 604.787 71.7929C605.378 72.2512 605.733 73.0403 605.853 74.1601L604.486 74.1601C604.403 73.6445 604.213 73.2161 603.916 72.8749C603.619 72.5338 603.142 72.3632 602.486 72.3632C601.59 72.3632 600.949 72.8007 600.564 73.6757C600.314 74.2434 600.189 74.9439 600.189 75.7773C600.189 76.6158 600.366 77.3215 600.72 77.8945C601.074 78.4674 601.632 78.7538 602.392 78.7538C602.976 78.7538 603.438 78.5754 603.779 78.2187C604.12 77.8619 604.356 77.3736 604.486 76.7538L605.853 76.7538C605.697 77.8632 605.306 78.6744 604.681 79.1874C604.056 79.7004 603.257 79.957 602.283 79.957C601.189 79.957 600.317 79.5572 599.666 78.7577C599.015 77.9583 598.689 76.9596 598.689 75.7616C598.689 74.2929 599.046 73.1497 599.759 72.332C600.473 71.5143 601.382 71.1054 602.486 71.1054Z"/>
<path d="M610.744 71.1601C611.338 71.1601 611.913 71.2994 612.47 71.5781C613.028 71.8567 613.452 72.2174 613.744 72.6601C614.025 73.082 614.212 73.5741 614.306 74.1366C614.39 74.5221 614.431 75.1366 614.431 75.9804L608.298 75.9804C608.324 76.8294 608.525 77.5103 608.9 78.0234C609.275 78.5364 609.856 78.7929 610.642 78.7929C611.377 78.7929 611.962 78.5507 612.4 78.0663C612.65 77.7851 612.827 77.4596 612.931 77.0898L614.314 77.0898C614.278 77.3971 614.157 77.7395 613.951 78.1171C613.745 78.4947 613.515 78.8033 613.259 79.0429C612.832 79.4596 612.304 79.7408 611.673 79.8866C611.335 79.97 610.952 80.0116 610.525 80.0116C609.483 80.0116 608.601 79.6327 607.877 78.8749C607.153 78.1171 606.791 77.0559 606.791 75.6913C606.791 74.3476 607.155 73.2564 607.884 72.4179C608.614 71.5794 609.567 71.1601 610.744 71.1601ZM612.986 74.8632C612.929 74.2538 612.796 73.7669 612.587 73.4023C612.202 72.7252 611.559 72.3866 610.658 72.3866C610.012 72.3866 609.47 72.6197 609.033 73.0859C608.595 73.552 608.364 74.1445 608.337 74.8632L612.986 74.8632Z"/>
<path d="M616.197 71.3476L617.533 71.3476L617.533 72.7929C617.642 72.5116 617.91 72.1692 618.337 71.7656C618.765 71.3619 619.257 71.1601 619.814 71.1601C619.84 71.1601 619.884 71.1627 619.947 71.1679C620.009 71.1731 620.116 71.1835 620.267 71.1991L620.267 72.6835C620.184 72.6679 620.107 72.6575 620.037 72.6523C619.966 72.6471 619.89 72.6445 619.806 72.6445C619.098 72.6445 618.554 72.8723 618.173 73.3281C617.793 73.7838 617.603 74.3085 617.603 74.9023L617.603 79.7148L616.197 79.7148L616.197 71.3476Z"/>
</g>
</g>
</svg>
